<svg version="1.1" xmlns="http://www.w3.org/2000/svg" xmlns:xlink="http://www.w3.org/1999/xlink" x="0px" y="0px"
	 viewBox="0 0 512 512" style="enable-background:new 0 0 512 512;" xml:space="preserve">
	<path d="M464,96H48c-17.7,0-32,14.3-32,32v256c0,17.7,14.3,32,32,32h416c17.7,0,32-14.3,32-32V128
		C496,110.3,481.7,96,464,96z M464,416H48V192h416V416z" fill="#00A859"/>
	<path d="M400,416H112V208h288V416z M128,240h128v32H128V240z M192,320h-32v-32h32V320z M256,320h-32v-32h32V320z M320,320h-32v-32
		h32V320z M192,256H128v-32h64V256z M256,256H192v-32h64V256z M320,256H256v-32h64V256z" fill="#FFFFFF"/>
</svg>
